<svg id="visual" viewBox="0 0 960 540" width="960" height="540" xmlns="http://www.w3.org/2000/svg" xmlns:xlink="http://www.w3.org/1999/xlink" version="1.1"><rect width="960" height="540" fill="#ffdede"></rect><g><g transform="translate(93 200)"><path d="M64.8 -77.1C82.8 -62 95.6 -40.6 100.3 -17.3C104.9 6.1 101.3 31.2 89.7 52.3C78.1 73.4 58.6 90.4 36.2 97.7C13.9 105.1 -11.4 102.8 -34 94.2C-56.5 85.6 -76.5 70.6 -87.8 50.8C-99.1 31 -101.8 6.3 -96.6 -15.9C-91.3 -38.2 -78.2 -57.9 -60.8 -73C-43.4 -88.2 -21.7 -98.8 0.8 -99.8C23.3 -100.7 46.7 -92.1 64.8 -77.1Z" fill="none" stroke="#fff" stroke-width="11"></path></g><g transform="translate(239 425)"><path d="M40.8 -48.1C52.3 -38.9 60.8 -25.6 64 -10.8C67.3 4 65.3 20.3 58 34.1C50.8 47.9 38.3 59.3 23.5 64.7C8.8 70.1 -8.2 69.6 -23 63.9C-37.9 58.2 -50.7 47.4 -57.5 34C-64.4 20.5 -65.3 4.4 -62.6 -11.1C-59.9 -26.6 -53.6 -41.4 -42.5 -50.7C-31.5 -60 -15.7 -63.7 -0.6 -63C14.6 -62.3 29.2 -57.3 40.8 -48.1Z" fill="none" stroke="#fff" stroke-width="11"></path></g><g transform="translate(905 239)"><path d="M63.2 -77.5C79.4 -61.8 88.3 -39.4 90.9 -17.1C93.5 5.2 89.8 27.5 80 47.7C70.1 67.9 54 86.1 33.6 94.4C13.2 102.6 -11.5 101 -33.5 92.7C-55.6 84.4 -75 69.5 -86.5 49.8C-98 30.2 -101.6 5.8 -97.2 -16.7C-92.7 -39.3 -80.2 -60 -62.7 -75.5C-45.2 -91 -22.6 -101.2 0.5 -101.7C23.5 -102.3 47 -93.2 63.2 -77.5Z" stroke="#fff" fill="none" stroke-width="11"></path></g><g transform="translate(560 127)"><path d="M48.2 -56.4C61.3 -46.5 70 -30.2 72.6 -13.1C75.3 3.9 71.9 21.7 63 35.6C54 49.4 39.6 59.2 23.6 65C7.7 70.9 -9.7 72.7 -24.4 67.3C-39 61.8 -50.8 49 -58.4 34.4C-65.9 19.9 -69.1 3.6 -66.6 -12C-64.2 -27.6 -56.2 -42.5 -44.2 -52.6C-32.1 -62.8 -16.1 -68.1 0.8 -69C17.6 -69.9 35.1 -66.4 48.2 -56.4Z" stroke="#fff" fill="none" stroke-width="11"></path></g></g></svg>